<svg width="934" height="934" viewBox="0 0 934 934" fill="none" xmlns="http://www.w3.org/2000/svg">
<path d="M469 330.667C394.333 330.667 331.333 391.333 331.333 468.333C331.333 545.333 392 606 469 606C546 606 606.667 545.333 606.667 468.333C606.667 391.333 543.667 330.667 469 330.667ZM415.333 412.333C403.667 412.333 394.333 403 394.333 391.333C394.333 379.667 403.667 370.333 415.333 370.333C427 370.333 436.333 379.667 436.333 391.333C436.333 403 427 412.333 415.333 412.333Z" fill="black"/>
<path d="M711.667 193H226.333C205.333 193 189 209.333 189 228V706.333C189 725 205.333 741.333 224 741.333H709.333C728 741.333 744.333 725 744.333 706.333V228C749 209.333 732.667 193 711.667 193ZM469 652.667C368.667 652.667 284.667 571 284.667 468.333C284.667 365.667 366.333 284 469 284C571.667 284 653.333 365.667 653.333 468.333C653.333 571 569.333 652.667 469 652.667ZM667.333 270C655.667 270 646.333 260.667 646.333 249C646.333 237.333 655.667 228 667.333 228C679 228 688.333 237.333 688.333 249C688.333 260.667 681.333 270 667.333 270Z" fill="black"/>
</svg>
