<svg width="934" height="934" viewBox="0 0 934 934" fill="none" xmlns="http://www.w3.org/2000/svg">
<path fill-rule="evenodd" clip-rule="evenodd" d="M607.803 575.56C554.412 644.549 496.86 689.581 496.172 690.107C479.298 703.299 455.588 703.299 438.714 690.107C438.026 689.581 380.474 644.549 327.083 575.56H280.776C274.089 575.56 268.13 579.836 266.016 586.201L203.792 772.867C202.219 777.607 203.016 782.82 205.938 786.883C208.865 790.925 213.563 793.336 218.553 793.336H716.339C721.329 793.336 726.027 790.925 728.954 786.883C731.876 782.821 732.673 777.607 731.1 772.867L668.876 586.201C666.761 579.836 660.803 575.56 654.116 575.56H607.803Z" fill="black"/>
<path fill-rule="evenodd" clip-rule="evenodd" d="M467.443 140C579.052 140 669.67 230.609 669.67 342.227C669.67 411.508 638.758 477.68 601.191 531.973C546.035 611.728 477.03 665.587 477.03 665.587V665.597C471.399 670.003 463.494 670.003 457.863 665.597V665.587C457.863 665.587 388.858 611.732 333.702 531.973C296.134 477.687 265.223 411.509 265.223 342.227C265.223 230.612 355.838 140 467.45 140H467.443ZM467.443 264.443C424.511 264.443 389.667 299.287 389.667 342.224C389.667 385.156 424.511 420 467.443 420C510.375 420 545.219 385.156 545.219 342.224C545.219 299.287 510.375 264.443 467.443 264.443Z" fill="black"/>
</svg>
