<svg width="934" height="934" viewBox="0 0 934 934" fill="none" xmlns="http://www.w3.org/2000/svg">
<path d="M110.693 369.748L815.973 145.682C826.567 142.307 836.671 152.01 833.744 162.728L710.348 614.182C708.166 622.156 699.598 626.52 691.864 623.588L442.691 529.348C432.894 525.64 430.467 512.875 438.232 505.843L633.699 328.736C645.715 317.856 632.746 298.653 618.158 305.752L290.944 464.899C287.361 466.644 283.215 466.774 279.528 465.269L109.648 396.091C97.5069 391.138 98.1945 373.716 110.694 369.752L110.693 369.748ZM502.747 407.92C508.882 402.592 502.07 392.988 495.002 397.009L339.069 482.165C325.006 490.17 318.402 506.873 323.183 522.337L371.35 684.497C373.798 692.711 384.11 695.362 390.21 689.346L486.346 598.346C490.273 594.466 489.023 587.836 483.945 585.674L384.19 535.955C378.711 533.221 377.633 525.882 382.076 521.69L502.737 407.919L502.747 407.92Z" fill="black"/>
<path d="M100.396 788.105C100.365 788.121 100.339 788.126 100.313 788.126H100.25C100.177 788.126 100.125 788.115 100.083 788.084C100.042 788.042 100.021 787.99 100.021 787.917C100.021 787.85 100.042 787.792 100.083 787.751C100.125 787.709 100.177 787.688 100.25 787.688C100.276 787.688 100.297 787.699 100.313 787.709C100.339 787.709 100.365 787.719 100.396 787.73V787.813C100.365 787.803 100.339 787.792 100.313 787.792C100.297 787.782 100.276 787.772 100.25 787.772C100.219 787.772 100.193 787.787 100.167 787.813C100.151 787.844 100.146 787.876 100.146 787.917C100.146 787.959 100.151 787.996 100.167 788.022C100.193 788.053 100.219 788.063 100.25 788.063H100.313C100.339 788.053 100.365 788.037 100.396 788.022V788.105Z" fill="black"/>
<path d="M100.693 787.897H100.672C100.672 787.886 100.661 787.876 100.651 787.876C100.62 787.876 100.599 787.891 100.589 787.917C100.573 787.933 100.568 787.954 100.568 787.98V788.126H100.464V787.813H100.568V787.876C100.578 787.85 100.594 787.829 100.609 787.813C100.62 787.803 100.641 787.792 100.672 787.792H100.693V787.897Z" fill="black"/>
<path d="M101.057 787.959V788.001H100.828C100.828 788.032 100.833 788.053 100.849 788.063H100.911H100.974C101 788.053 101.026 788.037 101.057 788.022V788.105C101.026 788.121 101 788.126 100.974 788.126H100.911C100.854 788.126 100.807 788.115 100.766 788.084C100.734 788.058 100.724 788.022 100.724 787.98C100.724 787.928 100.734 787.886 100.766 787.855C100.807 787.813 100.849 787.792 100.891 787.792C100.943 787.792 100.984 787.813 101.016 787.855C101.042 787.886 101.057 787.917 101.057 787.959ZM100.953 787.938C100.953 787.912 100.943 787.897 100.932 787.897C100.932 787.886 100.917 787.876 100.891 787.876C100.875 787.876 100.859 787.886 100.849 787.897C100.833 787.897 100.828 787.912 100.828 787.938H100.953Z" fill="black"/>
<path d="M101.281 787.98C101.266 787.98 101.25 787.99 101.24 788.001C101.224 788.001 101.219 788.011 101.219 788.022V788.063H101.26C101.286 788.063 101.307 788.058 101.323 788.042C101.333 788.032 101.344 788.016 101.344 788.001V787.98H101.281ZM101.427 787.938V788.126H101.344V788.084C101.328 788.1 101.307 788.115 101.281 788.126H101.219C101.188 788.126 101.161 788.121 101.135 788.105C101.12 788.095 101.115 788.063 101.115 788.022C101.115 787.996 101.125 787.975 101.156 787.959C101.182 787.949 101.224 787.938 101.281 787.938H101.344V787.917C101.344 787.907 101.333 787.897 101.323 787.897C101.307 787.886 101.286 787.876 101.26 787.876H101.177C101.161 787.876 101.156 787.886 101.156 787.897V787.813H101.198C101.224 787.803 101.25 787.792 101.281 787.792C101.333 787.792 101.37 787.808 101.385 787.834C101.411 787.865 101.427 787.897 101.427 787.938Z" fill="black"/>
<path d="M101.651 787.73V787.813H101.734V787.876H101.651V788.022V788.063H101.672H101.734V788.126H101.651C101.609 788.126 101.578 788.121 101.568 788.105C101.552 788.079 101.547 788.053 101.547 788.022V787.876H101.484V787.813H101.547V787.73H101.651Z" fill="black"/>
<path d="M102.109 787.959V788.001H101.88C101.88 788.032 101.885 788.053 101.901 788.063H101.964H102.026C102.052 788.053 102.078 788.037 102.109 788.022V788.105C102.078 788.121 102.052 788.126 102.026 788.126H101.964C101.906 788.126 101.859 788.115 101.818 788.084C101.786 788.058 101.776 788.022 101.776 787.98C101.776 787.928 101.786 787.886 101.818 787.855C101.859 787.813 101.901 787.792 101.943 787.792C101.995 787.792 102.036 787.813 102.068 787.855C102.094 787.886 102.109 787.917 102.109 787.959ZM102.005 787.938C102.005 787.912 101.995 787.897 101.984 787.897C101.984 787.886 101.969 787.876 101.943 787.876C101.927 787.876 101.911 787.886 101.901 787.897C101.885 787.897 101.88 787.912 101.88 787.938H102.005Z" fill="black"/>
<path d="M102.396 787.855V787.688H102.5V788.126H102.396V788.084C102.396 788.1 102.38 788.115 102.354 788.126H102.313C102.271 788.126 102.234 788.115 102.208 788.084C102.177 788.058 102.167 788.022 102.167 787.98C102.167 787.928 102.177 787.886 102.208 787.855C102.234 787.813 102.271 787.792 102.313 787.792C102.323 787.792 102.339 787.803 102.354 787.813C102.38 787.829 102.396 787.844 102.396 787.855ZM102.333 788.063C102.359 788.063 102.375 788.058 102.375 788.042C102.385 788.032 102.396 788.011 102.396 787.98C102.396 787.954 102.385 787.933 102.375 787.917C102.375 787.891 102.359 787.876 102.333 787.876C102.318 787.876 102.302 787.891 102.292 787.917C102.276 787.933 102.271 787.954 102.271 787.98C102.271 788.011 102.276 788.032 102.292 788.042C102.302 788.058 102.318 788.063 102.333 788.063Z" fill="black"/>
<path d="M102.964 788.063C102.99 788.063 103.005 788.058 103.005 788.042C103.016 788.032 103.026 788.011 103.026 787.98C103.026 787.954 103.016 787.933 103.005 787.917C103.005 787.891 102.99 787.876 102.964 787.876C102.948 787.876 102.932 787.891 102.922 787.917C102.906 787.933 102.901 787.954 102.901 787.98C102.901 787.996 102.906 788.016 102.922 788.042C102.932 788.058 102.948 788.063 102.964 788.063ZM102.901 787.855L102.943 787.813C102.969 787.803 102.99 787.792 103.005 787.792C103.047 787.792 103.078 787.813 103.109 787.855C103.135 787.886 103.151 787.928 103.151 787.98C103.151 788.022 103.135 788.058 103.109 788.084C103.078 788.115 103.047 788.126 103.005 788.126H102.943C102.927 788.115 102.911 788.1 102.901 788.084V788.126H102.797V787.688H102.901V787.855Z" fill="black"/>
<path d="M103.167 787.813H103.271L103.354 788.022L103.417 787.813H103.542L103.396 788.147C103.38 788.188 103.365 788.214 103.354 788.23C103.339 788.24 103.318 788.251 103.292 788.251H103.229V788.188H103.25C103.276 788.188 103.292 788.178 103.292 788.167C103.292 788.167 103.297 788.157 103.312 788.147V788.126L103.167 787.813Z" fill="black"/>
<path d="M103.891 788.084V788.251H103.786V787.813H103.891V787.855L103.932 787.813C103.958 787.803 103.979 787.792 103.995 787.792C104.036 787.792 104.068 787.813 104.099 787.855C104.125 787.886 104.141 787.928 104.141 787.98C104.141 788.022 104.125 788.058 104.099 788.084C104.068 788.115 104.036 788.126 103.995 788.126H103.932C103.917 788.115 103.901 788.1 103.891 788.084ZM103.953 787.876C103.938 787.876 103.922 787.891 103.911 787.917C103.896 787.933 103.891 787.954 103.891 787.98C103.891 787.996 103.896 788.016 103.911 788.042C103.922 788.058 103.938 788.063 103.953 788.063C103.979 788.063 103.995 788.058 103.995 788.042C104.005 788.032 104.016 788.011 104.016 787.98C104.016 787.954 104.005 787.933 103.995 787.917C103.995 787.891 103.979 787.876 103.953 787.876Z" fill="black"/>
<path d="M104.344 787.876C104.328 787.876 104.312 787.886 104.302 787.897C104.286 787.912 104.281 787.938 104.281 787.98C104.281 788.011 104.286 788.032 104.302 788.042C104.312 788.058 104.328 788.063 104.344 788.063C104.37 788.063 104.391 788.058 104.406 788.042C104.417 788.032 104.427 788.011 104.427 787.98C104.427 787.938 104.417 787.912 104.406 787.897C104.391 787.886 104.37 787.876 104.344 787.876ZM104.344 787.792C104.396 787.792 104.437 787.813 104.469 787.855C104.51 787.886 104.531 787.928 104.531 787.98C104.531 788.022 104.51 788.058 104.469 788.084C104.437 788.115 104.396 788.126 104.344 788.126C104.302 788.126 104.26 788.115 104.219 788.084C104.187 788.058 104.177 788.022 104.177 787.98C104.177 787.928 104.187 787.886 104.219 787.855C104.26 787.813 104.302 787.792 104.344 787.792Z" fill="black"/>
<path d="M104.693 788.084V788.251H104.589V787.813H104.693V787.855L104.734 787.813C104.76 787.803 104.781 787.792 104.797 787.792C104.839 787.792 104.87 787.813 104.901 787.855C104.927 787.886 104.943 787.928 104.943 787.98C104.943 788.022 104.927 788.058 104.901 788.084C104.87 788.115 104.839 788.126 104.797 788.126H104.734C104.719 788.115 104.703 788.1 104.693 788.084ZM104.755 787.876C104.74 787.876 104.724 787.891 104.714 787.917C104.698 787.933 104.693 787.954 104.693 787.98C104.693 787.996 104.698 788.016 104.714 788.042C104.724 788.058 104.74 788.063 104.755 788.063C104.781 788.063 104.797 788.058 104.797 788.042C104.807 788.032 104.818 788.011 104.818 787.98C104.818 787.954 104.807 787.933 104.797 787.917C104.797 787.891 104.781 787.876 104.755 787.876Z" fill="black"/>
<path d="M105.271 787.813V787.897H105.208C105.208 787.886 105.193 787.876 105.167 787.876C105.151 787.876 105.13 787.891 105.104 787.917C105.089 787.933 105.083 787.954 105.083 787.98C105.083 787.996 105.089 788.016 105.104 788.042C105.13 788.058 105.151 788.063 105.167 788.063H105.229C105.24 788.053 105.255 788.042 105.271 788.042V788.126H105.208H105.167C105.109 788.126 105.063 788.115 105.021 788.084C104.99 788.058 104.979 788.022 104.979 787.98C104.979 787.928 104.99 787.886 105.021 787.855C105.063 787.813 105.109 787.792 105.167 787.792C105.177 787.792 105.193 787.803 105.208 787.813H105.271Z" fill="black"/>
<path d="M105.49 787.876C105.474 787.876 105.458 787.886 105.448 787.897C105.432 787.912 105.427 787.938 105.427 787.98C105.427 788.011 105.432 788.032 105.448 788.042C105.458 788.058 105.474 788.063 105.49 788.063C105.516 788.063 105.536 788.058 105.552 788.042C105.562 788.032 105.573 788.011 105.573 787.98C105.573 787.938 105.562 787.912 105.552 787.897C105.536 787.886 105.516 787.876 105.49 787.876ZM105.49 787.792C105.542 787.792 105.583 787.813 105.615 787.855C105.656 787.886 105.677 787.928 105.677 787.98C105.677 788.022 105.656 788.058 105.615 788.084C105.583 788.115 105.542 788.126 105.49 788.126C105.448 788.126 105.406 788.115 105.365 788.084C105.333 788.058 105.323 788.022 105.323 787.98C105.323 787.928 105.333 787.886 105.365 787.855C105.406 787.813 105.448 787.792 105.49 787.792Z" fill="black"/>
<path d="M105.964 787.897H105.943C105.943 787.886 105.932 787.876 105.922 787.876C105.891 787.876 105.87 787.891 105.859 787.917C105.844 787.933 105.839 787.954 105.839 787.98V788.126H105.734V787.813H105.839V787.876C105.849 787.85 105.865 787.829 105.88 787.813C105.891 787.803 105.911 787.792 105.943 787.792H105.964V787.897Z" fill="black"/>
<path d="M106.354 787.938V788.126H106.229V787.98V787.938V787.897H106.208C106.208 787.886 106.198 787.876 106.188 787.876C106.172 787.876 106.156 787.891 106.146 787.917C106.13 787.933 106.125 787.954 106.125 787.98V788.126H106.021V787.813H106.125V787.855L106.167 787.813C106.193 787.803 106.214 787.792 106.229 787.792C106.271 787.792 106.297 787.808 106.313 787.834C106.339 787.865 106.354 787.897 106.354 787.938Z" fill="black"/>
<path d="M106.573 787.98C106.557 787.98 106.542 787.99 106.531 788.001C106.516 788.001 106.51 788.011 106.51 788.022V788.063H106.552C106.578 788.063 106.599 788.058 106.615 788.042C106.625 788.032 106.635 788.016 106.635 788.001V787.98H106.573ZM106.719 787.938V788.126H106.635V788.084C106.62 788.1 106.599 788.115 106.573 788.126H106.51C106.479 788.126 106.453 788.121 106.427 788.105C106.411 788.095 106.406 788.063 106.406 788.022C106.406 787.996 106.417 787.975 106.448 787.959C106.474 787.949 106.516 787.938 106.573 787.938H106.635V787.917C106.635 787.907 106.625 787.897 106.615 787.897C106.599 787.886 106.578 787.876 106.552 787.876H106.469C106.453 787.876 106.448 787.886 106.448 787.897V787.813H106.49C106.516 787.803 106.542 787.792 106.573 787.792C106.625 787.792 106.661 787.808 106.677 787.834C106.703 787.865 106.719 787.897 106.719 787.938Z" fill="black"/>
<path d="M107.047 787.897H107.026C107.026 787.886 107.016 787.876 107.005 787.876C106.974 787.876 106.953 787.891 106.943 787.917C106.927 787.933 106.922 787.954 106.922 787.98V788.126H106.818V787.813H106.922V787.876C106.932 787.85 106.948 787.829 106.964 787.813C106.974 787.803 106.995 787.792 107.026 787.792H107.047V787.897Z" fill="black"/>
<path d="M107.224 787.73V787.813H107.307V787.876H107.224V788.022V788.063H107.245H107.307V788.126H107.224C107.182 788.126 107.151 788.121 107.141 788.105C107.125 788.079 107.12 788.053 107.12 788.022V787.876H107.057V787.813H107.12V787.73H107.224Z" fill="black"/>
<path d="M107.625 787.813V787.897C107.594 787.886 107.568 787.876 107.542 787.876H107.5H107.458V787.897V787.938H107.5H107.521C107.563 787.938 107.589 787.949 107.604 787.959C107.63 787.975 107.646 788.001 107.646 788.042C107.646 788.074 107.63 788.095 107.604 788.105C107.589 788.121 107.552 788.126 107.5 788.126H107.417H107.375V788.042C107.385 788.058 107.401 788.063 107.417 788.063H107.5H107.521C107.531 788.063 107.542 788.058 107.542 788.042C107.542 788.032 107.531 788.022 107.521 788.022C107.521 788.011 107.51 788.001 107.5 788.001H107.479C107.438 788.001 107.401 787.996 107.375 787.98C107.359 787.954 107.354 787.928 107.354 787.897C107.354 787.871 107.365 787.85 107.396 787.834C107.422 787.808 107.458 787.792 107.5 787.792C107.51 787.792 107.526 787.803 107.542 787.813H107.625Z" fill="black"/>
<path d="M100.25 788.261V788.324H100.188C100.188 788.324 100.177 788.334 100.167 788.345V788.365V788.386H100.25V788.449H100.167V788.699H100.063V788.449H100V788.386H100.063V788.365C100.063 788.324 100.068 788.298 100.083 788.282C100.109 788.272 100.146 788.261 100.188 788.261H100.25Z" fill="black"/>
<path d="M100.521 788.469H100.5C100.5 788.459 100.49 788.449 100.479 788.449C100.448 788.449 100.427 788.464 100.417 788.49C100.401 788.506 100.396 788.527 100.396 788.553V788.699H100.292V788.386H100.396V788.449C100.406 788.423 100.422 788.402 100.437 788.386C100.448 788.376 100.469 788.365 100.5 788.365H100.521V788.469Z" fill="black"/>
<path d="M100.719 788.449C100.703 788.449 100.687 788.459 100.677 788.469C100.661 788.485 100.656 788.511 100.656 788.553C100.656 788.584 100.661 788.605 100.677 788.615C100.687 788.631 100.703 788.636 100.719 788.636C100.745 788.636 100.766 788.631 100.781 788.615C100.792 788.605 100.802 788.584 100.802 788.553C100.802 788.511 100.792 788.485 100.781 788.469C100.766 788.459 100.745 788.449 100.719 788.449ZM100.719 788.365C100.771 788.365 100.812 788.386 100.844 788.428C100.885 788.459 100.906 788.501 100.906 788.553C100.906 788.594 100.885 788.631 100.844 788.657C100.812 788.688 100.771 788.699 100.719 788.699C100.677 788.699 100.635 788.688 100.594 788.657C100.562 788.631 100.552 788.594 100.552 788.553C100.552 788.501 100.562 788.459 100.594 788.428C100.635 788.386 100.677 788.365 100.719 788.365Z" fill="black"/>
<path d="M101.26 788.449C101.271 788.423 101.286 788.402 101.302 788.386C101.328 788.376 101.349 788.365 101.365 788.365C101.406 788.365 101.432 788.381 101.448 788.407C101.474 788.438 101.49 788.469 101.49 788.511V788.699H101.385V788.532V788.511C101.385 788.501 101.375 788.485 101.365 788.469C101.365 788.459 101.354 788.449 101.344 788.449C101.328 788.449 101.312 788.464 101.302 788.49C101.286 788.506 101.281 788.527 101.281 788.553V788.699H101.177V788.532C101.177 788.506 101.167 788.485 101.156 788.469C101.156 788.459 101.146 788.449 101.135 788.449C101.12 788.449 101.104 788.464 101.094 788.49C101.078 788.506 101.073 788.527 101.073 788.553V788.699H100.969V788.386H101.073V788.428L101.115 788.386C101.125 788.376 101.146 788.365 101.177 788.365C101.187 788.365 101.203 788.376 101.219 788.386C101.245 788.402 101.26 788.423 101.26 788.449Z" fill="black"/>
<path d="M101.891 788.303V788.386H101.974V788.449H101.891V788.594V788.636H101.911H101.974V788.699H101.891C101.849 788.699 101.818 788.693 101.807 788.678C101.792 788.652 101.786 788.626 101.786 788.594V788.449H101.724V788.386H101.786V788.303H101.891Z" fill="black"/>
<path d="M102.375 788.511V788.699H102.25V788.553V788.511V788.469H102.229C102.229 788.459 102.219 788.449 102.208 788.449C102.193 788.449 102.177 788.464 102.167 788.49C102.151 788.506 102.146 788.527 102.146 788.553V788.699H102.042V788.261H102.146V788.428L102.188 788.386C102.214 788.376 102.234 788.365 102.25 788.365C102.292 788.365 102.318 788.381 102.333 788.407C102.359 788.438 102.375 788.47 102.375 788.511Z" fill="black"/>
<path d="M102.766 788.532V788.574H102.536C102.536 788.605 102.542 788.626 102.557 788.636H102.62H102.682C102.708 788.626 102.734 788.61 102.766 788.594V788.678C102.734 788.693 102.708 788.699 102.682 788.699H102.62C102.562 788.699 102.516 788.688 102.474 788.657C102.443 788.631 102.432 788.594 102.432 788.553C102.432 788.501 102.443 788.459 102.474 788.428C102.516 788.386 102.557 788.365 102.599 788.365C102.651 788.365 102.693 788.386 102.724 788.428C102.75 788.459 102.766 788.49 102.766 788.532ZM102.661 788.511C102.661 788.485 102.651 788.469 102.641 788.469C102.641 788.459 102.625 788.449 102.599 788.449C102.583 788.449 102.568 788.459 102.557 788.469C102.542 788.469 102.536 788.485 102.536 788.511H102.661Z" fill="black"/>
<path d="M103.062 788.282H103.167L103.333 788.574V788.282H103.438V788.699H103.313L103.146 788.407V788.699H103.062V788.282Z" fill="black"/>
<path d="M103.667 788.449C103.651 788.449 103.635 788.459 103.625 788.469C103.609 788.485 103.604 788.511 103.604 788.553C103.604 788.584 103.609 788.605 103.625 788.615C103.635 788.631 103.651 788.636 103.667 788.636C103.693 788.636 103.714 788.631 103.729 788.615C103.74 788.605 103.75 788.584 103.75 788.553C103.75 788.511 103.74 788.485 103.729 788.469C103.714 788.459 103.693 788.449 103.667 788.449ZM103.667 788.365C103.719 788.365 103.76 788.386 103.792 788.428C103.833 788.459 103.854 788.501 103.854 788.553C103.854 788.594 103.833 788.631 103.792 788.657C103.76 788.688 103.719 788.699 103.667 788.699C103.625 788.699 103.583 788.688 103.542 788.657C103.51 788.631 103.5 788.594 103.5 788.553C103.5 788.501 103.51 788.459 103.542 788.428C103.583 788.386 103.625 788.365 103.667 788.365Z" fill="black"/>
<path d="M103.917 788.574V788.386H104.021V788.407V788.49V788.532V788.595V788.615C104.031 788.615 104.042 788.626 104.042 788.636H104.063C104.089 788.636 104.104 788.631 104.104 788.615C104.115 788.589 104.125 788.563 104.125 788.532V788.386H104.229V788.699H104.125V788.657C104.109 788.673 104.094 788.688 104.083 788.699H104.021C103.99 788.699 103.964 788.693 103.938 788.678C103.922 788.652 103.917 788.615 103.917 788.574Z" fill="black"/>
<path d="M104.656 788.511V788.699H104.531V788.553V788.511V788.469H104.51C104.51 788.459 104.5 788.449 104.49 788.449C104.474 788.449 104.458 788.464 104.448 788.49C104.432 788.506 104.427 788.527 104.427 788.553V788.699H104.323V788.386H104.427V788.428L104.469 788.386C104.495 788.376 104.516 788.365 104.531 788.365C104.573 788.365 104.599 788.381 104.615 788.407C104.641 788.438 104.656 788.469 104.656 788.511Z" fill="black"/>
<path d="M104.953 788.282H105.12C105.172 788.282 105.214 788.298 105.245 788.324C105.271 788.339 105.286 788.376 105.286 788.428C105.286 788.469 105.271 788.506 105.245 788.532C105.214 788.548 105.172 788.553 105.12 788.553H105.057V788.699H104.953V788.282ZM105.057 788.365V788.469H105.12H105.161C105.172 788.459 105.182 788.443 105.182 788.428C105.182 788.402 105.172 788.386 105.161 788.386C105.146 788.376 105.13 788.365 105.12 788.365H105.057Z" fill="black"/>
<path d="M105.583 788.469H105.562C105.562 788.459 105.552 788.449 105.542 788.449C105.51 788.449 105.49 788.464 105.479 788.49C105.464 788.506 105.458 788.527 105.458 788.553V788.699H105.354V788.386H105.458V788.449C105.469 788.423 105.484 788.402 105.5 788.386C105.51 788.376 105.531 788.365 105.562 788.365H105.583V788.469Z" fill="black"/>
<path d="M105.781 788.449C105.766 788.449 105.75 788.459 105.74 788.469C105.724 788.485 105.719 788.511 105.719 788.553C105.719 788.584 105.724 788.605 105.74 788.615C105.75 788.631 105.766 788.636 105.781 788.636C105.807 788.636 105.828 788.631 105.844 788.615C105.854 788.605 105.865 788.584 105.865 788.553C105.865 788.511 105.854 788.485 105.844 788.469C105.828 788.459 105.807 788.449 105.781 788.449ZM105.781 788.365C105.833 788.365 105.875 788.386 105.906 788.428C105.948 788.459 105.969 788.501 105.969 788.553C105.969 788.594 105.948 788.631 105.906 788.657C105.875 788.688 105.833 788.699 105.781 788.699C105.74 788.699 105.698 788.688 105.656 788.657C105.625 788.631 105.615 788.594 105.615 788.553C105.615 788.501 105.625 788.459 105.656 788.428C105.698 788.386 105.74 788.365 105.781 788.365Z" fill="black"/>
<path d="M106.031 788.386H106.135V788.699C106.135 788.74 106.12 788.766 106.094 788.782C106.078 788.808 106.052 788.824 106.01 788.824H105.969V788.761H105.99C106 788.761 106.01 788.751 106.01 788.74C106.021 788.74 106.031 788.725 106.031 788.699V788.386ZM106.031 788.261H106.135V788.345H106.031V788.261Z" fill="black"/>
<path d="M106.542 788.532V788.574H106.312C106.312 788.605 106.318 788.626 106.333 788.636H106.396H106.458C106.484 788.626 106.51 788.61 106.542 788.594V788.678C106.51 788.693 106.484 788.699 106.458 788.699H106.396C106.339 788.699 106.292 788.688 106.25 788.657C106.219 788.631 106.208 788.594 106.208 788.553C106.208 788.501 106.219 788.459 106.25 788.428C106.292 788.386 106.333 788.365 106.375 788.365C106.427 788.365 106.469 788.386 106.5 788.428C106.526 788.459 106.542 788.49 106.542 788.532ZM106.437 788.511C106.437 788.485 106.427 788.469 106.417 788.469C106.417 788.459 106.401 788.449 106.375 788.449C106.359 788.449 106.344 788.459 106.333 788.469C106.318 788.469 106.312 788.485 106.312 788.511H106.437Z" fill="black"/>
<path d="M106.891 788.386V788.469H106.828C106.828 788.459 106.813 788.449 106.786 788.449C106.771 788.449 106.75 788.464 106.724 788.49C106.708 788.506 106.703 788.527 106.703 788.553C106.703 788.568 106.708 788.589 106.724 788.615C106.75 788.631 106.771 788.636 106.786 788.636H106.849C106.859 788.626 106.875 788.615 106.891 788.615V788.699H106.828H106.786C106.729 788.699 106.682 788.688 106.641 788.657C106.609 788.631 106.599 788.594 106.599 788.553C106.599 788.501 106.609 788.459 106.641 788.428C106.682 788.386 106.729 788.365 106.786 788.365C106.797 788.365 106.813 788.376 106.828 788.386H106.891Z" fill="black"/>
<path d="M107.083 788.303V788.386H107.167V788.449H107.083V788.594V788.636H107.104H107.167V788.699H107.083C107.042 788.699 107.01 788.693 107 788.678C106.984 788.652 106.979 788.626 106.979 788.594V788.449H106.917V788.386H106.979V788.303H107.083Z" fill="black"/>
</svg>
